<svg width="40" height="40" viewBox="0 0 40 40" fill="none" xmlns="http://www.w3.org/2000/svg">
<path d="M22.3562 5.82192V0H4V40H22.3562V34.1781C18.5959 34.1781 14.9896 32.6842 12.3307 30.0253C9.67183 27.3664 8.17808 23.7603 8.17808 20C8.17808 16.2397 9.67183 12.6334 12.3307 9.97459C14.9896 7.31568 18.5959 5.82192 22.3562 5.82192Z" fill="#D3A0FA"/>
<path d="M22.3569 5.8219V34.1781C26.1172 34.1781 29.7235 32.6842 32.3824 30.0253C35.0413 27.3664 36.535 23.7603 36.535 20C36.535 16.2397 35.0413 12.6334 32.3824 9.97457C29.7235 7.31567 26.1172 5.8219 22.3569 5.8219Z" fill="#D3A0FA"/>
</svg>
